<svg width="78" height="78" viewBox="0 0 78 78" fill="none" xmlns="http://www.w3.org/2000/svg">
<path d="M30.5423 45.3755L19.1139 50.5713C18.5239 50.8398 17.9939 51.2241 17.5555 51.7016C17.1171 52.179 16.7792 52.7398 16.5619 53.3505L11.209 68.3338C11.209 68.3338 16.0423 74.3755 39.0007 74.3755C61.959 74.3755 66.7923 68.3338 66.7923 68.3338L61.4394 53.3505C61.2221 52.7398 60.8842 52.179 60.4458 51.7016C60.0074 51.2241 59.4774 50.8398 58.8874 50.5713L47.459 45.3755H30.5423Z" fill="white"/>
<path d="M66.7928 68.3338C66.7928 68.3338 61.9594 74.3755 39.0011 74.3755C33.8294 74.4327 28.6624 74.0405 23.5586 73.2034C29.0839 72.3274 34.3505 70.2529 38.989 67.1255H39.0011C42.0014 65.0826 44.6294 62.5405 46.7707 59.6097C48.4492 57.2995 49.7427 54.7328 50.6011 52.0092C51.0777 50.4541 51.3975 48.8552 51.5557 47.2363L58.7211 50.4988L58.8903 50.5713C59.4793 50.8408 60.0084 51.2256 60.4462 51.703C60.8841 52.1803 61.222 52.7405 61.4398 53.3505L62.5515 56.4438L64.7507 62.6184L66.7928 68.3338Z" fill="#A6C4E0"/>
<path d="M34.166 57.459L35.3743 62.2923H42.6243L43.8327 57.459H34.166ZM43.8327 74.3757L42.6243 62.2923H35.3743L34.166 74.3757H43.8327Z" fill="#7898FB"/>
<path d="M43.8327 74.3754H34.166L34.1781 74.2788L34.6373 69.6509C36.1485 68.9193 37.6026 68.0751 38.9873 67.1254H38.9993C40.3426 66.2028 41.6149 65.1809 42.8056 64.0684L43.8206 74.2788L43.8327 74.3754Z" fill="#5A72BC"/>
<path d="M30.541 42.959H47.4577V49.0007C47.4577 51.2439 46.5665 53.3954 44.9803 54.9816C43.3941 56.5678 41.2426 57.459 38.9993 57.459C36.7561 57.459 34.6047 56.5678 33.0184 54.9816C31.4322 53.3954 30.541 51.2439 30.541 49.0007V42.959Z" fill="#C68C66"/>
<path d="M47.4577 45.3755V57.4588H38.9993L47.4577 45.3755ZM30.541 45.3755V57.4588H38.9993L30.541 45.3755Z" fill="white"/>
<path d="M24.4993 32.084H22.0827L19.666 17.584H24.4993V32.084ZM53.4994 32.084H55.916L58.3327 17.584H53.4994V32.084Z" fill="#5A72BC"/>
<path d="M51.084 35.709H54.709C55.6704 35.709 56.5924 35.3271 57.2722 34.6472C57.9521 33.9674 58.334 33.0454 58.334 32.084C58.334 31.1226 57.9521 30.2005 57.2722 29.5207C56.5924 28.8409 55.6704 28.459 54.709 28.459H51.084V35.709Z" fill="#C68C66"/>
<path d="M53.5 23.626C53.5 15.6178 47.0081 9.12598 39 9.12598C30.9919 9.12598 24.5 15.6178 24.5 23.626V33.2926C24.5 41.3008 30.9919 47.7926 39 47.7926C47.0081 47.7926 53.5 41.3008 53.5 33.2926V23.626Z" fill="#FFD8B1"/>
<path d="M53.5003 21.209V33.2923C53.4985 35.996 52.7413 38.6455 51.314 40.9418C49.8868 43.2382 47.8464 45.0901 45.4228 46.2887C42.9993 47.4873 40.2891 47.9848 37.5978 47.7253C34.9066 47.4658 32.3414 46.4594 30.1915 44.8198C32.3493 45.4378 34.6211 45.546 36.8279 45.1358C39.0346 44.7256 41.1158 43.8082 42.9073 42.456C44.6989 41.1039 46.1517 39.354 47.1512 37.3443C48.1508 35.3346 48.6696 33.1202 48.6669 30.8757V21.209H53.5003Z" fill="#E2A074"/>
<path d="M26.916 35.709H23.291C22.3296 35.709 21.4076 35.3271 20.7278 34.6472C20.0479 33.9674 19.666 33.0454 19.666 32.084C19.666 31.1226 20.0479 30.2005 20.7278 29.5207C21.4076 28.8409 22.3296 28.459 23.291 28.459H26.916V35.709Z" fill="#FFD8B1"/>
<path d="M32.9583 35.7091C35.6277 35.7091 37.7917 33.5452 37.7917 30.8758C37.7917 28.2064 35.6277 26.0425 32.9583 26.0425C30.289 26.0425 28.125 28.2064 28.125 30.8758C28.125 33.5452 30.289 35.7091 32.9583 35.7091Z" fill="#5CE5D5"/>
<path d="M45.0423 35.7091C47.7117 35.7091 49.8757 33.5452 49.8757 30.8758C49.8757 28.2064 47.7117 26.0425 45.0423 26.0425C42.3729 26.0425 40.209 28.2064 40.209 30.8758C40.209 33.5452 42.3729 35.7091 45.0423 35.7091Z" fill="#5CE5D5"/>
<path d="M35.2783 26.6346L28.7171 33.1958C28.3283 32.4844 28.1247 31.6866 28.125 30.8758C28.125 30.7066 28.1371 30.5254 28.1492 30.3562L32.4388 26.0666C32.6079 26.0546 32.7892 26.0425 32.9583 26.0425C33.7691 26.0421 34.5669 26.2457 35.2783 26.6346ZM37.7433 30.2112L32.2938 35.6608C31.4221 35.5397 30.5995 35.1848 29.9133 34.6337L36.7163 27.8308C37.2673 28.517 37.6222 29.3396 37.7433 30.2112ZM47.3617 26.6346L40.8004 33.1958C40.4116 32.4844 40.208 31.6866 40.2083 30.8758C40.2083 30.7066 40.2204 30.5254 40.2325 30.3562L44.5221 26.0666C44.6913 26.0546 44.8725 26.0425 45.0417 26.0425C45.8524 26.0421 46.6502 26.2457 47.3617 26.6346ZM49.8267 30.2112L44.3771 35.6608C43.5054 35.5397 42.6828 35.1848 41.9967 34.6337L48.7996 27.8308C49.3507 28.517 49.7056 29.3396 49.8267 30.2112Z" fill="white"/>
<path d="M25.7077 11.5425C25.7077 7.53565 31.6527 4.29248 38.9993 4.29248C49.6859 4.29248 58.3327 10.2375 58.3327 17.5841L57.1244 24.8341L53.4994 22.4175C50.1228 22.4175 46.7926 21.6313 43.7725 20.1213C40.7523 18.6112 38.1253 16.4187 36.0993 13.7175L35.3743 12.7508C35.3743 15.3146 34.3559 17.7733 32.543 19.5862C30.7302 21.399 28.2714 22.4175 25.7077 22.4175H24.4993L20.8743 24.8341L19.666 17.5841C19.666 15.9818 20.3025 14.4451 21.4356 13.312C22.5686 12.179 24.1053 11.5425 25.7077 11.5425Z" fill="#7898FB"/>
<path d="M58.3327 17.5842L57.1244 24.8342L53.4994 28.4592V22.4175C50.1229 22.4165 46.7929 21.6305 43.7723 20.1217C40.7546 18.6078 38.1284 16.4158 36.0993 13.7175L35.3743 12.7508C35.3761 14.0208 35.1273 15.2786 34.6421 16.4522C34.1569 17.6258 33.4449 18.6921 32.547 19.5901C31.649 20.4881 30.5826 21.2001 29.409 21.6852C28.2354 22.1704 26.9776 22.4193 25.7077 22.4175H24.4993V28.4592L20.8743 24.8342L19.666 17.5842H23.291C25.5936 17.5866 27.8212 16.7657 29.5717 15.2698C31.3222 13.7739 32.4803 11.7015 32.8368 9.42671C32.8951 9.01044 33.1011 8.62899 33.4172 8.35193C33.7333 8.07488 34.1384 7.92069 34.5587 7.9175C34.8068 7.91624 35.0523 7.96872 35.2782 8.07134C35.5041 8.17397 35.7051 8.3243 35.8674 8.512C37.6823 10.6145 44.2991 17.5842 52.291 17.5842H58.3327Z" fill="#5A72BC"/>
<path d="M67.9302 67.928L62.5773 52.9374C62.3033 52.1762 61.88 51.4774 61.3322 50.8821C60.7844 50.2867 60.1231 49.8069 59.3873 49.4707L49.4789 44.9648C51.8577 42.8324 53.5291 40.0249 54.27 36.9173H54.7086C55.9905 36.9173 57.2198 36.4081 58.1263 35.5017C59.0327 34.5952 59.5419 33.3659 59.5419 32.084C59.5373 30.9566 59.1346 29.867 58.4049 29.0076L59.5419 17.584C59.5419 9.58844 50.3272 3.08398 39.0003 3.08398C31.5255 3.08398 25.5394 6.22565 24.6211 10.4149C22.8893 10.6867 21.3133 11.573 20.1816 12.9117C19.0499 14.2504 18.4383 15.952 18.4586 17.7048L19.5884 29.0076C18.8618 29.8683 18.4617 30.9576 18.4586 32.084C18.4586 33.3659 18.9678 34.5952 19.8742 35.5017C20.7807 36.4081 22.01 36.9173 23.2919 36.9173H23.7305C24.4724 40.0253 26.1451 42.8329 28.5252 44.9648L18.6169 49.4707C17.8808 49.8069 17.2194 50.2869 16.6716 50.8825C16.1238 51.478 15.7006 52.1771 15.4269 52.9386L10.0703 67.928C10.0011 68.1221 9.98256 68.3306 10.0166 68.5339C10.0507 68.7371 10.1361 68.9283 10.2649 69.0892C10.4836 69.3538 15.729 75.584 39.0003 75.584C62.2715 75.584 67.5169 69.3538 67.7356 69.0892C67.8644 68.9283 67.9499 68.7371 67.9839 68.5339C68.018 68.3306 67.9995 68.1221 67.9302 67.928ZM41.3203 56.2507L46.2503 49.2085V56.2507H41.3203ZM41.6828 61.084H36.319L35.7148 58.6673H42.2857L41.6828 61.084ZM31.7503 56.2507V49.2085L36.6803 56.2507H31.7503ZM39.0003 55.3517L33.9639 48.1548C37.2273 49.2794 40.7732 49.2794 44.0366 48.1548L39.0003 55.3517ZM54.7086 34.5007V29.6673C55.3495 29.6673 55.9642 29.9219 56.4174 30.3751C56.8706 30.8284 57.1253 31.443 57.1253 32.084C57.1253 32.7249 56.8706 33.3396 56.4174 33.7928C55.9642 34.246 55.3495 34.5007 54.7086 34.5007ZM25.7086 12.7507C26.0291 12.7507 26.3364 12.6233 26.563 12.3967C26.7896 12.1701 26.9169 11.8628 26.9169 11.5423C26.9169 8.26773 32.4511 5.50065 39.0003 5.50065C48.9944 5.50065 57.1253 10.9212 57.1313 17.4632L56.1284 27.4923C55.6701 27.3403 55.1914 27.2588 54.7086 27.2507V22.4173C54.7086 22.0968 54.5813 21.7895 54.3547 21.5629C54.1281 21.3363 53.8207 21.209 53.5003 21.209C52.3532 21.2091 51.2081 21.1129 50.077 20.9214C49.7611 20.8679 49.4368 20.9421 49.1755 21.1277C48.9142 21.3133 48.7374 21.595 48.6838 21.911C48.6303 22.227 48.7045 22.5513 48.8901 22.8126C49.0757 23.0739 49.3575 23.2507 49.6735 23.3042C50.54 23.4514 51.4142 23.5482 52.2919 23.5942V26.7504L50.5761 28.4662C50.0627 27.2903 49.1883 26.3084 48.0795 25.6626C46.9707 25.0169 45.6852 24.741 44.409 24.8748C43.1329 25.0086 41.9326 25.5452 40.9818 26.4069C40.0311 27.2685 39.3794 28.4105 39.1211 29.6673H38.8794C38.6208 28.4109 37.969 27.2694 37.0184 26.4081C36.0678 25.5468 34.8677 25.0105 33.5919 24.8767C32.3161 24.7429 31.0309 25.0186 29.9223 25.664C28.8137 26.3093 27.9393 27.2908 27.4256 28.4662L25.7086 26.7504V23.6257C28.0735 23.6224 30.3731 22.8499 32.2604 21.4248C34.1476 19.9997 35.52 17.9993 36.1703 15.7256C38.4699 18.369 41.3437 20.4513 44.5719 21.8132C44.7189 21.8802 44.8779 21.9171 45.0394 21.9216C45.201 21.9262 45.3618 21.8983 45.5124 21.8395C45.6629 21.7808 45.8002 21.6925 45.916 21.5798C46.0318 21.4671 46.1239 21.3323 46.1867 21.1834C46.2495 21.0345 46.2818 20.8745 46.2817 20.7129C46.2816 20.5513 46.249 20.3914 46.186 20.2426C46.123 20.0938 46.0307 19.9591 45.9148 19.8466C45.7988 19.734 45.6614 19.6459 45.5108 19.5874C42.163 18.1734 39.2496 15.8979 37.0669 12.9923L36.3419 12.0257C36.1898 11.8228 35.9776 11.6729 35.7355 11.5973C35.4935 11.5217 35.2337 11.5241 34.9931 11.6043C34.7526 11.6845 34.5433 11.8384 34.395 12.0441C34.2467 12.2499 34.1669 12.497 34.1669 12.7507C34.1644 14.9932 33.2724 17.1431 31.6867 18.7288C30.101 20.3145 27.9511 21.2064 25.7086 21.209H24.5003C24.1798 21.209 23.8724 21.3363 23.6458 21.5629C23.4192 21.7895 23.2919 22.0968 23.2919 22.4173V27.2507C22.8088 27.2588 22.3296 27.3403 21.8709 27.4923L20.8753 17.584C20.8753 16.3021 21.3845 15.0727 22.2909 14.1663C23.1973 13.2599 24.4267 12.7507 25.7086 12.7507ZM48.6669 30.8757C48.6669 31.5926 48.4543 32.2935 48.056 32.8896C47.6577 33.4857 47.0915 33.9503 46.4291 34.2247C45.7668 34.4991 45.0379 34.5709 44.3347 34.431C43.6315 34.2911 42.9856 33.9459 42.4787 33.4389C41.9717 32.9319 41.6264 32.286 41.4866 31.5829C41.3467 30.8797 41.4185 30.1508 41.6929 29.4884C41.9672 28.826 42.4319 28.2599 43.028 27.8616C43.6241 27.4633 44.325 27.2507 45.0419 27.2507C46.0033 27.2507 46.9254 27.6326 47.6052 28.3124C48.285 28.9922 48.6669 29.9142 48.6669 30.8757ZM36.5836 30.8757C36.5836 31.5926 36.371 32.2935 35.9727 32.8896C35.5743 33.4857 35.0082 33.9503 34.3458 34.2247C33.6834 34.4991 32.9546 34.5709 32.2514 34.431C31.5482 34.2911 30.9023 33.9459 30.3953 33.4389C29.8884 32.9319 29.5431 32.286 29.4032 31.5829C29.2634 30.8797 29.3352 30.1508 29.6095 29.4884C29.8839 28.826 30.3485 28.2599 30.9446 27.8616C31.5408 27.4633 32.2416 27.2507 32.9586 27.2507C33.92 27.2507 34.842 27.6326 35.5219 28.3124C36.2017 28.9922 36.5836 29.9142 36.5836 30.8757ZM23.2919 34.5007C22.651 34.5007 22.0363 34.246 21.5831 33.7928C21.1299 33.3396 20.8753 32.7249 20.8753 32.084C20.8753 31.443 21.1299 30.8284 21.5831 30.3751C22.0363 29.9219 22.651 29.6673 23.2919 29.6673V34.5007ZM25.7086 33.2923V30.1676L26.9737 31.4327C27.102 32.8754 27.7459 34.2237 28.7874 35.2303C29.8289 36.2369 31.1983 36.8345 32.6446 36.9136C34.0908 36.9927 35.5172 36.5481 36.6623 35.6611C37.8074 34.7741 38.5945 33.5041 38.8794 32.084H39.1211C39.4069 33.5032 40.1943 34.7721 41.3391 35.6582C42.4839 36.5444 43.9096 36.9886 45.3552 36.9095C46.8007 36.8304 48.1694 36.2333 49.2108 35.2276C50.2521 34.2218 50.8963 32.8746 51.0256 31.4327L52.2919 30.1676V33.2923C52.2919 36.8175 50.8916 40.1983 48.3989 42.6909C45.9062 45.1836 42.5254 46.584 39.0003 46.584C35.4751 46.584 32.0943 45.1836 29.6016 42.6909C27.109 40.1983 25.7086 36.8175 25.7086 33.2923ZM17.6998 53.7518C17.864 53.2948 18.118 52.8752 18.4466 52.5177C18.7753 52.1602 19.1721 51.8719 19.6138 51.6699L29.3336 47.2522V57.459C29.3336 57.7795 29.4609 58.0868 29.6875 58.3134C29.9141 58.54 30.2215 58.6673 30.5419 58.6673H33.2232L34.1524 62.3805L33.0879 73.0139C19.3129 72.2889 14.0711 69.123 12.6151 67.9848L17.6998 53.7518ZM35.507 73.1166L36.4736 63.5007H41.5378L42.5044 73.1166C40.1724 73.1842 37.839 73.1842 35.507 73.1166ZM44.9126 73.0175L43.8481 62.3842L44.7773 58.6673H47.4586C47.7791 58.6673 48.0864 58.54 48.313 58.3134C48.5396 58.0868 48.6669 57.7795 48.6669 57.459V47.2522L58.3868 51.6699C58.8282 51.8718 59.2249 52.1599 59.5536 52.5172C59.8823 52.8745 60.1363 53.2938 60.3008 53.7506L65.3842 67.9848C63.9088 69.1387 58.6635 72.2949 44.9126 73.0175Z" fill="#001437"/>
<path d="M52.2927 65.9171C51.9722 65.9171 51.6648 66.0444 51.4382 66.271C51.2116 66.4976 51.0843 66.805 51.0843 67.1254C51.0843 67.4459 51.2116 67.7532 51.4382 67.9799C51.6648 68.2065 51.9722 68.3338 52.2927 68.3338H59.5427C59.8631 68.3338 60.1705 68.2065 60.3971 67.9799C60.6237 67.7532 60.751 67.4459 60.751 67.1254C60.751 66.805 60.6237 66.4976 60.3971 66.271C60.1705 66.0444 59.8631 65.9171 59.5427 65.9171H52.2927ZM39.001 44.1671C40.978 44.1701 42.9077 43.5629 44.5267 42.4283C44.6613 42.3394 44.7767 42.2244 44.8661 42.0901C44.9555 41.9559 45.0171 41.8051 45.0474 41.6467C45.0776 41.4882 45.0758 41.3253 45.0421 41.1676C45.0083 41.0099 44.9434 40.8605 44.851 40.7282C44.7586 40.596 44.6407 40.4836 44.5042 40.3977C44.3677 40.3117 44.2154 40.254 44.0562 40.2279C43.897 40.2017 43.7343 40.2077 43.5774 40.2455C43.4206 40.2833 43.273 40.3521 43.1432 40.4478C41.9225 41.2804 40.4792 41.7257 39.0016 41.7257C37.524 41.7257 36.0807 41.2804 34.86 40.4478C34.5973 40.2678 34.2741 40.1988 33.9608 40.2559C33.6475 40.3129 33.3693 40.4913 33.1868 40.7523C33.0043 41.0133 32.9322 41.3358 32.9863 41.6496C33.0403 41.9635 33.216 42.2433 33.4753 42.4283C35.0943 43.5629 37.024 44.1701 39.001 44.1671Z" fill="#001437"/>
</svg>
