<svg width="75" height="75" viewBox="0 0 75 75" fill="none" xmlns="http://www.w3.org/2000/svg">
<path d="M56.426 8.27002H38.4585C37.4776 8.27002 36.6797 9.06618 36.6797 10.0448V19.0737C36.6797 20.0523 37.4777 20.8484 38.4585 20.8484H40.3686C40.6377 20.8484 40.8957 20.9553 41.0859 21.1455C41.2761 21.3358 41.383 21.5938 41.383 21.8628V23.78L44.7529 21.072C44.933 20.9273 45.1572 20.8484 45.3883 20.8484H56.426C57.4069 20.8484 58.2048 20.0523 58.2048 19.0737V10.0448C58.2048 9.06618 57.4068 8.27002 56.426 8.27002Z" fill="#FE646F"/>
<path d="M62.9768 13.5607H60.2325V19.0735C60.2325 21.1709 58.5244 22.8771 56.4249 22.8771H45.7443L41.003 26.6872C40.8539 26.807 40.674 26.8823 40.484 26.9042C40.2939 26.9261 40.1016 26.8938 39.9292 26.8111C39.7567 26.7284 39.6111 26.5987 39.5092 26.4368C39.4072 26.275 39.3531 26.0876 39.3531 25.8964V22.8769H38.4574C36.3579 22.8769 34.6498 21.1707 34.6498 19.0734V13.7114L5.2738 13.5605C4.44982 13.5605 3.77539 14.2351 3.77539 15.0642V47.6596H14.7477V39.8341C14.7477 37.7998 15.6378 35.7459 17.1895 34.1991C18.7 32.6934 20.6402 31.8651 22.6552 31.8651H22.6787L39.3617 31.9173L45.3782 26.6179C46.8224 25.348 49.0292 25.4884 50.2981 26.9311C50.9106 27.6248 51.2161 28.5199 51.1573 29.4505C51.0984 30.3823 50.6818 31.2331 49.9842 31.8464L42.5098 38.429L35.1424 40.4589V47.6596H54.6491C54.1487 46.3881 53.8906 44.9787 53.8906 43.5968C53.8906 39.8504 56.9385 36.8028 60.6846 36.8028C62.0379 36.8012 63.3604 37.2065 64.4804 37.9661V15.0645C64.4804 14.2353 63.8058 13.5607 62.9768 13.5607Z" fill="#DFF6FD"/>
<path d="M55.7545 49.6885H3.77344V54.2647C3.77344 55.0939 4.44801 55.7684 5.27707 55.7684H49.5579C51.014 54.1185 53.2138 53.0654 55.6713 53.0654H64.4786V50.9069C63.41 51.8122 62.1269 52.2846 60.6828 52.2846C58.5532 52.2846 56.8984 51.2405 55.7545 49.6885Z" fill="#8EBAC5"/>
<path d="M37.208 52.7287C37.208 52.9977 37.1012 53.2557 36.9109 53.446C36.7207 53.6362 36.4627 53.7431 36.1936 53.7431H32.0611C31.7921 53.7431 31.5341 53.6362 31.3438 53.446C31.1536 53.2557 31.0467 52.9977 31.0467 52.7287C31.0467 52.4596 31.1536 52.2016 31.3438 52.0114C31.5341 51.8211 31.7921 51.7143 32.0611 51.7143H36.1936C36.4627 51.7143 36.7207 51.8211 36.9109 52.0114C37.1012 52.2016 37.208 52.4596 37.208 52.7287ZM21.2949 23.3211C21.2949 20.0165 23.9833 17.328 27.2879 17.328C30.5926 17.328 33.2768 20.0165 33.2768 23.3211C33.2768 27.017 31.1779 30.9449 27.2879 30.9449C23.398 30.9449 21.2949 27.017 21.2949 23.3211ZM23.3237 23.3211C23.3237 25.6444 24.5536 28.9161 27.2879 28.9161C30.0223 28.9161 31.248 25.6442 31.248 23.3211C31.248 21.1352 29.4715 19.3568 27.2879 19.3568C25.1044 19.3568 23.3237 21.1352 23.3237 23.3211ZM43.2221 17.9727V11.1455C43.2221 10.9704 43.2675 10.7982 43.3538 10.6458C43.4401 10.4934 43.5644 10.3659 43.7147 10.2758C43.8649 10.1856 44.0358 10.136 44.2109 10.1315C44.3861 10.1271 44.5593 10.1681 44.7139 10.2506L51.1211 13.6637C51.2836 13.7501 51.4195 13.8792 51.5143 14.0369C51.609 14.1947 51.6591 14.3752 51.6591 14.5593C51.6591 14.7433 51.609 14.9239 51.5143 15.0817C51.4195 15.2394 51.2836 15.3684 51.1211 15.4549L44.714 18.8679C44.5595 18.9504 44.3862 18.9914 44.211 18.987C44.0359 18.9826 43.8649 18.9328 43.7147 18.8427C43.5645 18.7525 43.4402 18.6251 43.3539 18.4726C43.2676 18.3202 43.2223 18.148 43.2223 17.9729L43.2221 17.9727ZM45.2509 16.282L48.485 14.5591L45.2509 12.8363V16.282ZM73.6234 60.5006V68.5477C73.6234 68.8167 73.5165 69.0747 73.3263 69.2649C73.136 69.4552 72.878 69.562 72.609 69.562H17.7908C17.5218 69.562 17.2638 69.4552 17.0736 69.2649C16.8833 69.0747 16.7764 68.8167 16.7764 68.5477V65.0561C16.7764 64.7871 16.8833 64.529 17.0736 64.3388C17.2638 64.1486 17.5218 64.0417 17.7908 64.0417H25.0751L27.4717 57.7975H5.27852C3.33073 57.7975 1.74609 56.2128 1.74609 54.2651V15.0645C1.74609 13.1167 3.33073 11.532 5.27852 11.532L34.6493 11.6829V10.0448C34.6493 7.94743 36.3574 6.24121 38.4569 6.24121H56.4244C58.5239 6.24121 60.232 7.94743 60.232 10.0448V11.532H62.9763C64.924 11.532 66.5087 13.1167 66.5087 15.0645V40.1098C67.1416 41.1628 67.4754 42.3685 67.4741 43.597C67.4741 45.1266 67.1215 46.7399 66.5087 48.1097V53.105C70.4999 53.4896 73.6234 56.6596 73.6234 60.5006ZM60.6841 50.256C64.1527 50.256 65.4453 46.1716 65.4453 43.597C65.4453 40.9695 63.3094 38.8318 60.6841 38.8318C58.0589 38.8318 55.9189 40.9695 55.9189 43.597C55.9189 46.1716 57.2126 50.256 60.6841 50.256ZM36.6782 19.0737C36.6782 20.0523 37.4763 20.8484 38.4571 20.8484H40.3672C40.6362 20.8484 40.8942 20.9553 41.0845 21.1455C41.2747 21.3358 41.3816 21.5938 41.3816 21.8628V23.78L44.7514 21.072C44.9316 20.9273 45.1558 20.8484 45.3869 20.8484H56.4245C57.4055 20.8484 58.2034 20.0523 58.2034 19.0737V10.0448C58.2034 9.06617 57.4053 8.27001 56.4245 8.27001H38.4571C37.4761 8.27001 36.6782 9.06617 36.6782 10.0448V19.0737ZM3.77489 15.0645V47.6599H14.7472V39.8344C14.7472 37.8 15.6373 35.7462 17.189 34.1994C18.6995 32.6937 20.6397 31.8654 22.6547 31.8654H22.6782L39.3612 31.9175L45.3777 26.6182C46.8219 25.3483 49.0287 25.4887 50.2976 26.9313C50.9101 27.625 51.2156 28.5202 51.1568 29.4508C51.0979 30.3826 50.6813 31.2334 49.9837 31.8467L42.5093 38.4293L35.1419 40.4592V47.6599H54.6486C54.1482 46.3884 53.8901 44.979 53.8901 43.597C53.8901 39.8507 56.938 36.803 60.6841 36.803C62.0374 36.8015 63.3599 37.2068 64.4799 37.9664V15.0645C64.4799 14.2353 63.8053 13.5608 62.9763 13.5608H60.232V19.0737C60.232 21.171 58.5239 22.8772 56.4244 22.8772H45.7438L41.0025 26.6873C40.8534 26.8072 40.6735 26.8824 40.4835 26.9043C40.2934 26.9263 40.1011 26.894 39.9287 26.8112C39.7562 26.7285 39.6106 26.5988 39.5087 26.437C39.4067 26.2751 39.3526 26.0878 39.3526 25.8965V22.8771H38.4569C36.3574 22.8771 34.6493 21.1709 34.6493 19.0735V13.7115L5.27331 13.5607C4.44932 13.5607 3.77489 14.2354 3.77489 15.0645ZM33.1131 47.6599V39.6865C33.1131 39.2196 33.4288 38.8275 33.8582 38.7094L33.8579 38.7085L41.5194 36.5976L48.6434 30.3235C48.9339 30.068 49.1072 29.713 49.1319 29.3227C49.1564 28.9339 49.0297 28.561 48.7752 28.2727C48.244 27.6687 47.3218 27.6103 46.7179 28.1411L40.1243 33.9487L22.6716 33.894H22.6547C21.1802 33.894 19.7485 34.5122 18.6211 35.636C17.4657 36.7878 16.7759 38.3572 16.7759 39.8342V47.6597H19.43V40.2491C19.43 39.9801 19.5368 39.722 19.7271 39.5318C19.9173 39.3416 20.1753 39.2347 20.4444 39.2347C20.7134 39.2347 20.9714 39.3416 21.1617 39.5318C21.3519 39.722 21.4588 39.9801 21.4588 40.2491V47.6597H33.1129L33.1131 47.6599ZM5.27852 55.7687H49.5594C51.0155 54.1188 53.2153 53.0657 55.6727 53.0657H64.48V50.9072C63.4114 51.8125 62.1284 52.2849 60.6843 52.2849C58.5546 52.2849 56.8999 51.2408 55.7559 49.6888H3.77489V54.2651C3.77489 55.0943 4.44947 55.7687 5.27852 55.7687ZM48.2859 57.7975H40.7799L43.1797 64.0417H47.741V60.5006C47.741 59.547 47.9356 58.636 48.286 57.7975H48.2859ZM27.2481 64.0417H41.006L38.6062 57.7975H29.6445L27.2481 64.0417ZM18.8052 67.5333H47.7408V66.0705H18.8052V67.5333ZM71.5947 60.5006C71.5947 57.5197 68.9467 55.0945 65.6917 55.0945H55.6727C52.4178 55.0945 49.7696 57.5197 49.7696 60.5006V67.5333H71.5947V60.5006Z" fill="black"/>
<path d="M27.2885 28.9162C30.02 28.9162 31.2486 25.6443 31.2486 23.3212C31.2486 21.1353 29.4721 19.3569 27.2885 19.3569C25.1049 19.3569 23.3242 21.1353 23.3242 23.3212C23.3242 25.6445 24.5541 28.9162 27.2885 28.9162Z" fill="#F6DCCD"/>
<path d="M38.6063 57.7974H29.6448L27.2481 64.0416H41.0061L38.6063 57.7974Z" fill="#6B96A5"/>
<path d="M60.6851 38.832C58.0576 38.832 55.9199 40.9697 55.9199 43.5972C55.9199 46.1718 57.2136 50.2562 60.6851 50.2562C64.1567 50.2562 65.4463 46.1718 65.4463 43.5972C65.4463 40.9697 63.3104 38.832 60.6851 38.832Z" fill="#F6DCCD"/>
<path d="M45.252 12.8364V16.2822L48.486 14.5593L45.252 12.8364Z" fill="white"/>
<path d="M18.8047 66.0703H47.7403V67.5331H18.8047V66.0703Z" fill="#7CA1B1"/>
<path d="M48.6448 30.3235C48.9354 30.068 49.1087 29.713 49.1334 29.3227C49.1578 28.9339 49.0312 28.561 48.7767 28.2726C48.2455 27.6686 47.3232 27.6102 46.7194 28.1411L40.1258 33.9486L22.673 33.894H22.6562C21.1817 33.894 19.75 34.5122 18.6225 35.636C17.4671 36.7878 16.7773 38.3572 16.7773 39.8342V47.6597H19.4314V40.2491C19.4314 39.98 19.5383 39.722 19.7286 39.5318C19.9188 39.3416 20.1768 39.2347 20.4458 39.2347C20.7149 39.2347 20.9729 39.3416 21.1631 39.5318C21.3534 39.722 21.4602 39.98 21.4602 40.2491V47.6597H33.1144V39.6864C33.1144 39.2195 33.4302 38.8273 33.8595 38.7092L33.8592 38.7084L41.5207 36.5974L48.6447 30.3233L48.6448 30.3235Z" fill="#8AC9FE"/>
<path d="M65.6917 55.0947H55.6727C52.4178 55.0947 49.7697 57.5199 49.7697 60.5008V67.5334H71.5947V60.5008C71.5947 57.5199 68.9467 55.0947 65.6917 55.0947Z" fill="#6CF5C2"/>
</svg>
