<svg width="78" height="78" viewBox="0 0 78 78" fill="none" xmlns="http://www.w3.org/2000/svg">
<path d="M56.166 71.3878L40.6324 40.5114L38.9993 37.2695L37.3662 40.5114L21.8326 71.3878C21.692 71.6667 21.6251 71.9769 21.6384 72.2889C21.6517 72.6008 21.7446 72.9042 21.9085 73.1701C22.0723 73.436 22.3015 73.6554 22.5742 73.8076C22.8469 73.9597 23.154 74.0395 23.4663 74.0392C23.8052 74.0393 24.1375 73.9451 24.426 73.7672C24.7145 73.5893 24.9479 73.3348 25.1001 73.0319L38.9993 45.4047L52.8985 73.0319C53.0507 73.3348 53.2841 73.5893 53.5726 73.7672C53.8611 73.9451 54.1933 74.0393 54.5323 74.0392C54.8445 74.0395 55.1517 73.9597 55.4244 73.8076C55.6971 73.6554 55.9263 73.436 56.0901 73.1701C56.2539 72.9042 56.3469 72.6008 56.3602 72.2889C56.3735 71.9769 56.3066 71.6667 56.166 71.3878Z" fill="#AA7E54"/>
<path d="M37.1719 3.96094H40.8281V16.4531H37.1719V3.96094Z" fill="#E2A76F"/>
<path d="M7.08398 8.53125H70.916V52.1016H7.08398V8.53125Z" fill="#EAEAF0"/>
<path d="M3.96094 49.3594H74.0391V54.8438H3.96094V49.3594Z" fill="#E2A76F"/>
<path d="M70.9191 15.3359C70.6362 15.3359 70.365 15.4483 70.165 15.6483C69.965 15.8483 69.8527 16.1195 69.8527 16.4023V18.484C69.8527 18.7668 69.965 19.038 70.165 19.238C70.365 19.438 70.6362 19.5504 70.9191 19.5504C71.2019 19.5504 71.4731 19.438 71.6731 19.238C71.8731 19.038 71.9855 18.7668 71.9855 18.484V16.4023C71.9855 16.1195 71.8731 15.8483 71.6731 15.6483C71.4731 15.4483 71.2019 15.3359 70.9191 15.3359ZM66.1934 27.4722V35.0389C66.1934 35.3217 66.3057 35.5929 66.5057 35.7929C66.7057 35.9929 66.9769 36.1053 67.2598 36.1053C67.5426 36.1053 67.8138 35.9929 68.0138 35.7929C68.2138 35.5929 68.3262 35.3217 68.3262 35.0389V27.4722C68.3262 27.1894 68.2138 26.9182 68.0138 26.7182C67.8138 26.5182 67.5426 26.4058 67.2598 26.4058C66.9769 26.4058 66.7057 26.5182 66.5057 26.7182C66.3057 26.9182 66.1934 27.1894 66.1934 27.4722Z" fill="#20334D"/>
<path d="M74.0391 48.293H71.9855V22.2422C71.9855 21.9594 71.8731 21.6881 71.6731 21.4881C71.4731 21.2881 71.2019 21.1758 70.9191 21.1758C70.6362 21.1758 70.365 21.2881 70.165 21.4881C69.965 21.6881 69.8527 21.9594 69.8527 22.2422V48.293H19.1003C18.8174 48.293 18.5462 48.4053 18.3462 48.6053C18.1462 48.8053 18.0338 49.0765 18.0338 49.3594C18.0338 49.6422 18.1462 49.9134 18.3462 50.1134C18.5462 50.3134 18.8174 50.4258 19.1003 50.4258H72.9727V53.7773H5.02734V50.4258H13.8633C14.1461 50.4258 14.4174 50.3134 14.6173 50.1134C14.8173 49.9134 14.9297 49.6422 14.9297 49.3594C14.9297 49.0765 14.8173 48.8053 14.6173 48.6053C14.4174 48.4053 14.1461 48.293 13.8633 48.293H8.14734V9.59766H69.8527V12.7969C69.8527 13.0797 69.965 13.3509 70.165 13.5509C70.365 13.7509 70.6362 13.8633 70.9191 13.8633C71.2019 13.8633 71.4731 13.7509 71.6731 13.5509C71.8731 13.3509 71.9855 13.0797 71.9855 12.7969V8.53125C71.9855 8.24842 71.8731 7.97718 71.6731 7.77719C71.4731 7.5772 71.2019 7.46484 70.9191 7.46484H41.8945V3.96094C41.8945 3.67811 41.7822 3.40686 41.5822 3.20687C41.3822 3.00688 41.111 2.89453 40.8281 2.89453H37.1719C36.889 2.89453 36.6178 3.00688 36.4178 3.20687C36.2178 3.40686 36.1055 3.67811 36.1055 3.96094V7.46484H7.08094C6.79811 7.46484 6.52686 7.5772 6.32687 7.77719C6.12688 7.97718 6.01453 8.24842 6.01453 8.53125V48.293H3.96094C3.67811 48.293 3.40686 48.4053 3.20687 48.6053C3.00688 48.8053 2.89453 49.0765 2.89453 49.3594V54.8437C2.89453 55.1266 3.00688 55.3978 3.20687 55.5978C3.40686 55.7978 3.67811 55.9102 3.96094 55.9102H28.428L26.9904 58.7669C26.9246 58.8923 26.8843 59.0295 26.8721 59.1706C26.8598 59.3117 26.8758 59.4538 26.919 59.5887C26.9623 59.7235 27.0319 59.8484 27.124 59.956C27.216 60.0637 27.3286 60.1519 27.4551 60.2155C27.5816 60.2792 27.7195 60.317 27.8608 60.3268C28.0021 60.3366 28.1439 60.3181 28.278 60.2725C28.4121 60.2269 28.5357 60.155 28.6417 60.0611C28.7477 59.9672 28.8339 59.8531 28.8953 59.7254L30.8155 55.9102H32.5217L24.1477 72.5534C24.1027 72.6427 24.0405 72.7224 23.9647 72.7877C23.889 72.853 23.8011 72.9027 23.7061 72.9341C23.611 72.9654 23.5108 72.9778 23.411 72.9704C23.3112 72.963 23.2139 72.936 23.1246 72.891C23.0352 72.846 22.9556 72.7838 22.8903 72.708C22.825 72.6322 22.7752 72.5443 22.7439 72.4493C22.7125 72.3543 22.7002 72.2541 22.7076 72.1543C22.715 72.0545 22.742 71.9572 22.787 71.8679L26.9478 63.5974C27.0723 63.345 27.092 63.0536 27.0026 62.7868C26.9132 62.5199 26.7219 62.2992 26.4704 62.1728C26.219 62.0464 25.9277 62.0245 25.6602 62.1119C25.3927 62.1993 25.1706 62.389 25.0423 62.6395L20.8808 70.9105C20.5358 71.5963 20.4773 72.3911 20.7183 73.1201C20.9592 73.849 21.4799 74.4524 22.1657 74.7974C22.8515 75.1425 23.6463 75.201 24.3753 74.96C25.1042 74.719 25.7076 74.1984 26.0526 73.5126L34.9099 55.9102H43.0901L51.948 73.5138C52.2934 74.1994 52.897 74.7198 53.626 74.9604C54.3551 75.201 55.1499 75.1422 55.8355 74.7968C56.5212 74.4514 57.0415 73.8478 57.2822 73.1188C57.5228 72.3897 57.4639 71.595 57.1185 70.9093L49.572 55.9102H74.0391C74.3219 55.9102 74.5931 55.7978 74.7931 55.5978C74.9931 55.3978 75.1055 55.1266 75.1055 54.8437V49.3594C75.1055 49.0765 74.9931 48.8053 74.7931 48.6053C74.5931 48.4053 74.3219 48.293 74.0391 48.293ZM38.2383 5.02734H39.7617V7.46484H38.2383V5.02734ZM55.2143 71.8691C55.2728 71.9852 55.3006 72.1144 55.2949 72.2444C55.2893 72.3743 55.2505 72.5007 55.1822 72.6114C55.1139 72.722 55.0183 72.8134 54.9047 72.8766C54.791 72.9398 54.663 72.9729 54.533 72.9726C54.3921 72.972 54.2542 72.9325 54.1342 72.8587C54.0143 72.7849 53.917 72.6795 53.8529 72.554L45.4777 55.9102H47.1839L55.2143 71.8691Z" fill="#20334D"/>
</svg>
